<svg width="256" height="256" viewBox="0 0 256 256" fill="none" xmlns="http://www.w3.org/2000/svg">
  <rect width="256" height="256" rx="72" fill="#111827"/>
  <circle cx="128" cy="98" r="42" fill="#EFC2A3"/>
  <path d="M60 220C66 172 92 144 128 144C164 144 190 172 196 220" fill="#22C55E"/>
  <path d="M82 84C92 56 108 44 128 44C148 44 166 56 174 80C158 84 142 88 128 88C112 88 96 86 82 84Z" fill="#F59E0B"/>
  <circle cx="112" cy="100" r="4" fill="#111827"/>
  <circle cx="144" cy="100" r="4" fill="#111827"/>
  <path d="M112 116C120 122 136 122 144 116" stroke="#111827" stroke-width="6" stroke-linecap="round"/>
</svg>
